<svg width="4946" height="1040" viewBox="0 0 4946 1040" fill="none" xmlns="http://www.w3.org/2000/svg">
<path d="M94.2827 484H11.8963L137.429 120.364H236.506L361.861 484H279.474L188.388 203.46H185.547L94.2827 484ZM89.1335 341.067H283.736V401.081H89.1335V341.067ZM629.661 237.906C627.175 229.265 623.683 221.63 619.185 215.001C614.687 208.254 609.183 202.572 602.672 197.956C596.28 193.221 588.941 189.611 580.655 187.125C572.488 184.639 563.432 183.396 553.489 183.396C534.905 183.396 518.569 188.013 504.483 197.246C490.516 206.479 479.625 219.914 471.813 237.551C464 255.07 460.094 276.495 460.094 301.827C460.094 327.158 463.941 348.702 471.635 366.457C479.329 384.213 490.22 397.767 504.306 407.118C518.392 416.351 535.023 420.967 554.199 420.967C571.6 420.967 586.455 417.89 598.766 411.734C611.195 405.461 620.665 396.642 627.175 385.278C633.804 373.915 637.118 360.48 637.118 344.973L652.743 347.281H558.993V289.398H711.159V335.207C711.159 367.168 704.412 394.63 690.918 417.594C677.424 440.439 658.839 458.077 635.165 470.506C611.491 482.816 584.384 488.972 553.844 488.972C519.753 488.972 489.805 481.455 464 466.422C438.195 451.27 418.072 429.786 403.631 401.969C389.308 374.033 382.147 340.889 382.147 302.537C382.147 273.062 386.408 246.784 394.931 223.702C403.572 200.501 415.646 180.851 431.152 164.753C446.659 148.654 464.711 136.403 485.307 127.999C505.904 119.594 528.217 115.392 552.246 115.392C572.843 115.392 592.019 118.411 609.775 124.447C627.53 130.366 643.274 138.77 657.005 149.661C670.854 160.551 682.159 173.512 690.918 188.545C699.677 203.46 705.3 219.914 707.786 237.906H629.661ZM768.91 484V120.364H1013.94V183.751H845.792V270.399H1001.33V333.787H845.792V420.612H1014.65V484H768.91Z" fill="#8B4300"/>
<path d="M1379.22 120.364V484H1312.81L1154.61 255.129H1151.94V484H1075.06V120.364H1142.53L1299.49 349.057H1302.69V120.364H1379.22ZM1571.64 484H1442.74V120.364H1572.71C1609.29 120.364 1640.77 127.643 1667.17 142.203C1693.57 156.644 1713.87 177.419 1728.07 204.526C1742.39 231.633 1749.56 264.066 1749.56 301.827C1749.56 339.705 1742.39 372.258 1728.07 399.483C1713.87 426.708 1693.45 447.601 1666.81 462.161C1640.3 476.72 1608.58 484 1571.64 484ZM1519.62 418.126H1568.45C1591.18 418.126 1610.29 414.102 1625.8 406.053C1641.42 397.885 1653.14 385.278 1660.96 368.233C1668.89 351.069 1672.85 328.934 1672.85 301.827C1672.85 274.956 1668.89 252.999 1660.96 235.953C1653.14 218.908 1641.48 206.36 1625.98 198.311C1610.47 190.262 1591.35 186.237 1568.63 186.237H1519.62V418.126ZM1848.68 484H1766.29L1891.82 120.364H1990.9L2116.26 484H2033.87L1942.78 203.46H1939.94L1848.68 484ZM1843.53 341.067H2038.13V401.081H1843.53V341.067Z" fill="black"/>
<path d="M859.828 726V544.182H921.262C935.467 544.182 947.126 546.608 956.241 551.462C965.356 556.256 972.103 562.855 976.482 571.259C980.862 579.664 983.052 589.222 983.052 599.935C983.052 610.647 980.862 620.147 976.482 628.433C972.103 636.719 965.385 643.229 956.33 647.964C947.274 652.639 935.704 654.977 921.617 654.977H871.901V635.091H920.907C930.614 635.091 938.426 633.67 944.345 630.83C950.322 627.989 954.643 623.964 957.306 618.756C960.029 613.488 961.39 607.214 961.39 599.935C961.39 592.655 960.029 586.292 957.306 580.847C954.584 575.402 950.234 571.2 944.256 568.241C938.278 565.222 930.377 563.713 920.552 563.713H881.845V726H859.828ZM945.41 644.324L990.154 726H964.586L920.552 644.324H945.41ZM1041.76 544.182V726H1019.74V544.182H1041.76ZM1239.31 635.091C1239.31 654.267 1235.85 670.839 1228.92 684.807C1222 698.775 1212.5 709.546 1200.43 717.122C1188.35 724.698 1174.56 728.486 1159.06 728.486C1143.55 728.486 1129.76 724.698 1117.68 717.122C1105.61 709.546 1096.11 698.775 1089.19 684.807C1082.26 670.839 1078.8 654.267 1078.8 635.091C1078.8 615.915 1082.26 599.343 1089.19 585.375C1096.11 571.407 1105.61 560.635 1117.68 553.06C1129.76 545.484 1143.55 541.696 1159.06 541.696C1174.56 541.696 1188.35 545.484 1200.43 553.06C1212.5 560.635 1222 571.407 1228.92 585.375C1235.85 599.343 1239.31 615.915 1239.31 635.091ZM1218 635.091C1218 619.348 1215.37 606.06 1210.1 595.229C1204.89 584.398 1197.82 576.201 1188.88 570.638C1180.01 565.074 1170.06 562.293 1159.06 562.293C1148.05 562.293 1138.07 565.074 1129.14 570.638C1120.26 576.201 1113.19 584.398 1107.92 595.229C1102.71 606.06 1100.11 619.348 1100.11 635.091C1100.11 650.834 1102.71 664.121 1107.92 674.952C1113.19 685.783 1120.26 693.981 1129.14 699.544C1138.07 705.107 1148.05 707.889 1159.06 707.889C1170.06 707.889 1180.01 705.107 1188.88 699.544C1197.82 693.981 1204.89 685.783 1210.1 674.952C1215.37 664.121 1218 650.834 1218 635.091Z" fill="#8B4300"/>
<path d="M1354.1 544.182L1408.08 697.236H1410.21L1464.19 544.182H1487.27L1420.51 726H1397.78L1331.02 544.182H1354.1ZM1515.59 726V544.182H1625.32V563.713H1537.61V625.148H1619.64V644.679H1537.61V706.469H1626.74V726H1515.59ZM1665 726V544.182H1726.44C1740.64 544.182 1752.3 546.608 1761.42 551.462C1770.53 556.256 1777.28 562.855 1781.66 571.259C1786.04 579.664 1788.23 589.222 1788.23 599.935C1788.23 610.647 1786.04 620.147 1781.66 628.433C1777.28 636.719 1770.56 643.229 1761.51 647.964C1752.45 652.639 1740.88 654.977 1726.79 654.977H1677.08V635.091H1726.08C1735.79 635.091 1743.6 633.67 1749.52 630.83C1755.5 627.989 1759.82 623.964 1762.48 618.756C1765.2 613.488 1766.57 607.214 1766.57 599.935C1766.57 592.655 1765.2 586.292 1762.48 580.847C1759.76 575.402 1755.41 571.2 1749.43 568.241C1743.45 565.222 1735.55 563.713 1725.73 563.713H1687.02V726H1665ZM1750.59 644.324L1795.33 726H1769.76L1725.73 644.324H1750.59ZM1881.02 726H1824.92V544.182H1883.51C1901.15 544.182 1916.24 547.822 1928.79 555.102C1941.33 562.322 1950.95 572.709 1957.64 586.263C1964.33 599.757 1967.67 615.915 1967.67 634.736C1967.67 653.675 1964.3 669.981 1957.55 683.653C1950.8 697.265 1940.98 707.741 1928.08 715.08C1915.17 722.36 1899.49 726 1881.02 726ZM1846.93 706.469H1879.6C1894.64 706.469 1907.09 703.569 1916.98 697.768C1926.86 691.968 1934.23 683.712 1939.08 672.999C1943.94 662.287 1946.36 649.532 1946.36 634.736C1946.36 620.058 1943.97 607.422 1939.17 596.827C1934.38 586.174 1927.22 578.006 1917.69 572.325C1908.16 566.584 1896.29 563.713 1882.09 563.713H1846.93V706.469ZM2004.6 726V544.182H2114.33V563.713H2026.62V625.148H2108.65V644.679H2026.62V706.469H2115.75V726H2004.6Z" fill="black"/>
</svg>
